# xmcd CD database file
#
# Track frame offsets:
#	187
#	18647
#	39540
#	63335
#	84342
#	105620
#	119202
#	131950
#	151325
#	166870
#	185455
#	204170
#	221462
#	242157
#	266287
#	281657
#	301585
#
# Disc length: 4309 seconds
#
# Revision: 0
# Processed by: cddbd v1.5.2PL0 Copyright (c) Steve Scherf et al.
# Submitted via: CDex 1.51
#
DISCID=e910d311
DTITLE=SALENA JONES - JVC Salena Jones Best
DYEAR=1900
DGENRE=Jazz
TTITLE0=I Want to Know About You
TTITLE1=Stuck on You
TTITLE2=My Love
TTITLE3=Up Where We Belong
TTITLE4=Antonio's Song
TTITLE5=The Way We Were
TTITLE6=A Song For You
TTITLE7=Bridge Over Troubled Water
TTITLE8=Stand By Me
TTITLE9=Mystery Love
TTITLE10=Sentimental Journey
TTITLE11=Melodys of Love
TTITLE12=Just The Way You Are
TTITLE13=Lately
TTITLE14=Love Is The Air
TTITLE15=We're All Alone
TTITLE16=You Are Always On My Mind
EXTD=
EXTT0=
EXTT1=
EXTT2=
EXTT3=
EXTT4=
EXTT5=
EXTT6=
EXTT7=
EXTT8=
EXTT9=
EXTT10=
EXTT11=
EXTT12=
EXTT13=
EXTT14=
EXTT15=
EXTT16=
PLAYORDER=
